<svg width="40" height="40" viewBox="0 0 40 40" fill="none" xmlns="http://www.w3.org/2000/svg">
<path fill-rule="evenodd" clip-rule="evenodd" d="M20.0867 2.08325H19.9133C18.415 2.08325 17.1667 2.08325 16.1767 2.21659C15.13 2.35659 14.185 2.66659 13.4267 3.42492C12.6667 4.18492 12.3567 5.12992 12.2167 6.17492C12.1217 6.88659 12.0933 8.58492 12.0867 10.0416C8.71668 10.1533 6.69168 10.5466 5.28668 11.9533C3.33334 13.9049 3.33334 17.0483 3.33334 23.3333C3.33334 29.6183 3.33334 32.7616 5.28668 34.7132C7.23834 36.6666 10.3817 36.6666 16.6667 36.6666H23.3333C29.6183 36.6666 32.7617 36.6666 34.7133 34.7132C36.6667 32.7616 36.6667 29.6183 36.6667 23.3333C36.6667 17.0483 36.6667 13.9049 34.7133 11.9533C33.3083 10.5466 31.2833 10.1533 27.9133 10.0433C27.9067 8.58492 27.88 6.88659 27.7833 6.17659C27.6433 5.12992 27.3333 4.18492 26.5733 3.42659C25.815 2.66659 24.87 2.35659 23.8233 2.21659C22.8333 2.08325 21.5833 2.08325 20.0867 2.08325ZM25.4133 10.0033C25.405 8.59158 25.3817 7.07325 25.3067 6.50825C25.2017 5.73992 25.0233 5.40992 24.8067 5.19325C24.59 4.97659 24.26 4.79825 23.49 4.69325C22.6867 4.58659 21.6067 4.58325 20 4.58325C18.3933 4.58325 17.3133 4.58659 16.5083 4.69492C15.74 4.79825 15.41 4.97659 15.1933 5.19492C14.9767 5.41159 14.7983 5.73992 14.6933 6.50825C14.6183 7.07492 14.5933 8.59158 14.5867 10.0033C15.2383 9.99992 15.9333 9.99992 16.6667 9.99992H23.3333C24.0683 9.99992 24.7617 9.99992 25.4133 10.0033ZM20 15.4166C20.3315 15.4166 20.6495 15.5483 20.8839 15.7827C21.1183 16.0171 21.25 16.3351 21.25 16.6666V16.6833C23.065 17.1399 24.5833 18.5716 24.5833 20.5549C24.5833 20.8864 24.4516 21.2044 24.2172 21.4388C23.9828 21.6732 23.6649 21.8049 23.3333 21.8049C23.0018 21.8049 22.6839 21.6732 22.4495 21.4388C22.215 21.2044 22.0833 20.8864 22.0833 20.5549C22.0833 19.9149 21.3733 19.0283 20 19.0283C18.6267 19.0283 17.9167 19.9149 17.9167 20.5549C17.9167 21.1949 18.6267 22.0833 20 22.0833C22.3083 22.0833 24.5833 23.6833 24.5833 26.1116C24.5833 28.0949 23.065 29.5249 21.25 29.9833V29.9999C21.25 30.3314 21.1183 30.6494 20.8839 30.8838C20.6495 31.1182 20.3315 31.2499 20 31.2499C19.6685 31.2499 19.3505 31.1182 19.1161 30.8838C18.8817 30.6494 18.75 30.3314 18.75 29.9999V29.9833C16.935 29.5266 15.4167 28.0949 15.4167 26.1116C15.4167 25.7801 15.5484 25.4621 15.7828 25.2277C16.0172 24.9933 16.3352 24.8616 16.6667 24.8616C16.9982 24.8616 17.3161 24.9933 17.5506 25.2277C17.785 25.4621 17.9167 25.7801 17.9167 26.1116C17.9167 26.7516 18.6267 27.6383 20 27.6383C21.3733 27.6383 22.0833 26.7516 22.0833 26.1116C22.0833 25.4716 21.3733 24.5833 20 24.5833C17.6917 24.5833 15.4167 22.9833 15.4167 20.5549C15.4167 18.5716 16.935 17.1399 18.75 16.6833V16.6666C18.75 16.3351 18.8817 16.0171 19.1161 15.7827C19.3505 15.5483 19.6685 15.4166 20 15.4166Z" fill="white"/>
</svg>
