<svg width="40" height="40" viewBox="0 0 40 40" fill="none" xmlns="http://www.w3.org/2000/svg">
<g clip-path="url(#clip0_725_36)">
<path fill-rule="evenodd" clip-rule="evenodd" d="M20 8.33337C20.442 8.33347 20.8659 8.50913 21.1784 8.82171L29.5117 17.155C29.8153 17.4694 29.9833 17.8904 29.9795 18.3274C29.9757 18.7644 29.8004 19.1824 29.4914 19.4914C29.1824 19.8004 28.7644 19.9757 28.3274 19.9795C27.8904 19.9833 27.4694 19.8153 27.155 19.5117L20 12.3567L12.845 19.5117C12.5307 19.8153 12.1097 19.9833 11.6727 19.9795C11.2357 19.9757 10.8177 19.8004 10.5087 19.4914C10.1997 19.1824 10.0244 18.7644 10.0206 18.3274C10.0168 17.8904 10.1848 17.4694 10.4884 17.155L18.8217 8.82171C19.1342 8.50913 19.558 8.33347 20 8.33337ZM20 18.3334C20.442 18.3335 20.8659 18.5091 21.1784 18.8217L29.5117 27.155C29.8153 27.4694 29.9833 27.8904 29.9795 28.3274C29.9757 28.7644 29.8004 29.1824 29.4914 29.4914C29.1824 29.8004 28.7644 29.9757 28.3274 29.9795C27.8904 29.9833 27.4694 29.8153 27.155 29.5117L20 22.3567L12.845 29.5117C12.5307 29.8153 12.1097 29.9833 11.6727 29.9795C11.2357 29.9757 10.8177 29.8004 10.5087 29.4914C10.1997 29.1824 10.0244 28.7644 10.0206 28.3274C10.0168 27.8904 10.1848 27.4694 10.4884 27.155L18.8217 18.8217C19.1342 18.5091 19.558 18.3335 20 18.3334Z" fill="white"/>
</g>
<defs>
<clipPath id="clip0_725_36">
<rect width="40" height="40" fill="white"/>
</clipPath>
</defs>
</svg>
