<svg width="40" height="40" viewBox="0 0 40 40" fill="none" xmlns="http://www.w3.org/2000/svg">
<path d="M30.9367 24.39L23.3333 20L30.9367 15.61C31.3163 15.3874 31.5926 15.0237 31.7051 14.5982C31.8175 14.1727 31.7572 13.72 31.5371 13.3389C31.3171 12.9577 30.9552 12.6791 30.5304 12.5638C30.1057 12.4485 29.6526 12.5058 29.27 12.7234L21.6667 17.1134V8.33335C21.6667 7.89133 21.4911 7.4674 21.1785 7.15484C20.8659 6.84228 20.442 6.66669 20 6.66669C19.558 6.66669 19.134 6.84228 18.8215 7.15484C18.5089 7.4674 18.3333 7.89133 18.3333 8.33335V17.1134L10.73 12.7234C10.3474 12.5058 9.89429 12.4485 9.46955 12.5638C9.04481 12.6791 8.68293 12.9577 8.46287 13.3389C8.24281 13.72 8.18244 14.1727 8.29493 14.5982C8.40742 15.0237 8.68365 15.3874 9.06333 15.61L16.6667 20L9.06333 24.39C8.68365 24.6126 8.40742 24.9763 8.29493 25.4018C8.18244 25.8273 8.24281 26.28 8.46287 26.6612C8.68293 27.0423 9.04481 27.321 9.46955 27.4363C9.89429 27.5516 10.3474 27.4942 10.73 27.2767L18.3333 22.8867V31.6667C18.3333 32.1087 18.5089 32.5326 18.8215 32.8452C19.134 33.1578 19.558 33.3334 20 33.3334C20.442 33.3334 20.8659 33.1578 21.1785 32.8452C21.4911 32.5326 21.6667 32.1087 21.6667 31.6667V22.8867L29.27 27.2767C29.6526 27.4942 30.1057 27.5516 30.5304 27.4363C30.9552 27.321 31.3171 27.0423 31.5371 26.6612C31.7572 26.28 31.8175 25.8273 31.7051 25.4018C31.5926 24.9763 31.3163 24.6126 30.9367 24.39Z" fill="white"/>
</svg>
