<svg width="40" height="40" viewBox="0 0 40 40" fill="none" xmlns="http://www.w3.org/2000/svg">
<path fill-rule="evenodd" clip-rule="evenodd" d="M10.7 8.04998C10.3446 7.71878 9.87446 7.53847 9.38871 7.54705C8.90296 7.55562 8.4395 7.7524 8.09596 8.09593C7.75243 8.43946 7.55565 8.90292 7.54708 9.38868C7.53851 9.87443 7.71882 10.3445 8.05002 10.7L17.35 20L8.05002 29.3C7.8658 29.4716 7.71805 29.6786 7.61557 29.9086C7.51309 30.1386 7.45798 30.3869 7.45354 30.6387C7.4491 30.8904 7.49541 31.1405 7.58971 31.374C7.68401 31.6074 7.82438 31.8195 8.00242 31.9976C8.18047 32.1756 8.39255 32.316 8.62602 32.4103C8.85949 32.5046 9.10957 32.5509 9.36132 32.5465C9.61308 32.542 9.86136 32.4869 10.0914 32.3844C10.3214 32.282 10.5284 32.1342 10.7 31.95L20 22.65L29.3 31.95C29.4717 32.1342 29.6787 32.282 29.9087 32.3844C30.1387 32.4869 30.387 32.542 30.6387 32.5465C30.8905 32.5509 31.1405 32.5046 31.374 32.4103C31.6075 32.316 31.8196 32.1756 31.9976 31.9976C32.1757 31.8195 32.316 31.6074 32.4103 31.374C32.5046 31.1405 32.5509 30.8904 32.5465 30.6387C32.5421 30.3869 32.487 30.1386 32.3845 29.9086C32.282 29.6786 32.1342 29.4716 31.95 29.3L22.65 20L31.95 10.7C32.2812 10.3445 32.4615 9.87443 32.453 9.38868C32.4444 8.90292 32.2476 8.43946 31.9041 8.09593C31.5605 7.7524 31.0971 7.55562 30.6113 7.54705C30.1256 7.53847 29.6555 7.71878 29.3 8.04998L20 17.35L10.7 8.04998Z" fill="white"/>
</svg>
