<svg width="41" height="45" viewBox="0 0 41 45" fill="none" xmlns="http://www.w3.org/2000/svg">
<g filter="url(#filter0_d_746_42)">
<path d="M22.845 5.48834C22.6905 5.33326 22.5068 5.21028 22.3046 5.12648C22.1024 5.04267 21.8856 4.99968 21.6667 5H6.66667C6.22464 5 5.80072 5.1756 5.48816 5.48816C5.17559 5.80072 5 6.22464 5 6.66667V21.6667C5 22.11 5.175 22.5333 5.48833 22.845L18.8217 36.1783C18.9761 36.3336 19.1597 36.4569 19.3619 36.541C19.5641 36.6251 19.781 36.6684 20 36.6684C20.219 36.6684 20.4359 36.6251 20.6381 36.541C20.8403 36.4569 21.0239 36.3336 21.1783 36.1783L36.1783 21.1783C36.3332 21.0237 36.4561 20.84 36.54 20.6378C36.6238 20.4356 36.667 20.2189 36.667 20C36.667 19.7811 36.6238 19.5644 36.54 19.3622C36.4561 19.16 36.3332 18.9763 36.1783 18.8217L22.845 5.48834ZM20 32.6433L8.33333 20.9767V8.33333H20.9767L32.6433 20L20 32.6433Z" fill="white"/>
<path d="M14.16 16.6666C15.5453 16.6666 16.6683 15.5436 16.6683 14.1582C16.6683 12.7729 15.5453 11.6499 14.16 11.6499C12.7747 11.6499 11.6517 12.7729 11.6517 14.1582C11.6517 15.5436 12.7747 16.6666 14.16 16.6666Z" fill="white"/>
</g>
<defs>
<filter id="filter0_d_746_42" x="-4" y="0" width="48" height="48" filterUnits="userSpaceOnUse" color-interpolation-filters="sRGB">
<feFlood flood-opacity="0" result="BackgroundImageFix"/>
<feColorMatrix in="SourceAlpha" type="matrix" values="0 0 0 0 0 0 0 0 0 0 0 0 0 0 0 0 0 0 127 0" result="hardAlpha"/>
<feOffset dy="4"/>
<feGaussianBlur stdDeviation="2"/>
<feComposite in2="hardAlpha" operator="out"/>
<feColorMatrix type="matrix" values="0 0 0 0 0 0 0 0 0 0 0 0 0 0 0 0 0 0 0.25 0"/>
<feBlend mode="normal" in2="BackgroundImageFix" result="effect1_dropShadow_746_42"/>
<feBlend mode="normal" in="SourceGraphic" in2="effect1_dropShadow_746_42" result="shape"/>
</filter>
</defs>
</svg>
