<svg width="40" height="40" viewBox="0 0 40 40" fill="none" xmlns="http://www.w3.org/2000/svg">
<path d="M37.1429 7.14282H2.85716C2.06818 7.14282 1.42859 7.78242 1.42859 8.57139V31.4285C1.42859 32.2175 2.06818 32.8571 2.85716 32.8571H37.1429C37.9319 32.8571 38.5714 32.2175 38.5714 31.4285V8.57139C38.5714 7.78242 37.9319 7.14282 37.1429 7.14282Z" stroke="white" stroke-width="2.85714" stroke-linecap="round" stroke-linejoin="round"/>
<path d="M24.2857 12.8572H8.57145C7.78248 12.8572 7.14288 13.4968 7.14288 14.2857V25.7143C7.14288 26.5033 7.78248 27.1429 8.57145 27.1429H24.2857C25.0747 27.1429 25.7143 26.5033 25.7143 25.7143V14.2857C25.7143 13.4968 25.0747 12.8572 24.2857 12.8572Z" stroke="white" stroke-width="2.85714" stroke-linecap="round" stroke-linejoin="round"/>
<path d="M31.4286 14.2856H32.8572M31.4286 18.5714H32.8572" stroke="white" stroke-width="2.85714" stroke-linecap="round" stroke-linejoin="round"/>
</svg>
