<svg width="40" height="43" viewBox="0 0 40 43" fill="none" xmlns="http://www.w3.org/2000/svg">
<g filter="url(#filter0_d_746_45)">
<path d="M7.70831 35C6.95831 35 6.31943 34.7361 5.79165 34.2083C5.26387 33.6806 4.99998 33.0417 4.99998 32.2917C4.99998 32.125 5.02054 31.9233 5.06165 31.6867C5.10276 31.45 5.15165 31.2489 5.20832 31.0833L8.33332 21.6667L5.20832 12.25C5.15276 12.0833 5.10387 11.8889 5.06165 11.6667C5.01943 11.4445 4.99887 11.2361 4.99998 11.0417C4.99998 10.2917 5.26387 9.65279 5.79165 9.12501C6.31943 8.59723 6.95831 8.33335 7.70831 8.33335H26.1666L27.875 3.62501C28.0694 3.09723 28.4239 2.70168 28.9383 2.43835C29.4528 2.17501 29.9872 2.1539 30.5416 2.37501C31.0972 2.59723 31.4933 2.95835 31.73 3.45835C31.9666 3.95835 31.9872 4.48612 31.7916 5.04168L30.5833 8.33335H32.2916C33.0416 8.33335 33.6805 8.59723 34.2083 9.12501C34.7361 9.65279 35 10.2917 35 11.0417C35 11.2083 34.9789 11.41 34.9366 11.6467C34.8944 11.8833 34.8461 12.0845 34.7916 12.25L31.6666 21.6667L34.7916 31.0833C34.8472 31.25 34.8961 31.4445 34.9383 31.6667C34.9805 31.8889 35.0011 32.0972 35 32.2917C35 33.0417 34.7361 33.6806 34.2083 34.2083C33.6805 34.7361 33.0416 35 32.2916 35H7.70831ZM20 28.3333C20.4722 28.3333 20.8683 28.1733 21.1883 27.8533C21.5083 27.5333 21.6678 27.1378 21.6666 26.6667V23.3333H25C25.4722 23.3333 25.8683 23.1733 26.1883 22.8533C26.5083 22.5333 26.6678 22.1378 26.6666 21.6667C26.6666 21.1945 26.5066 20.7983 26.1866 20.4783C25.8666 20.1583 25.4711 19.9989 25 20H21.6666V16.6667C21.6666 16.1945 21.5066 15.7983 21.1866 15.4783C20.8666 15.1583 20.4711 14.9989 20 15C19.5278 15 19.1316 15.16 18.8116 15.48C18.4916 15.8 18.3322 16.1956 18.3333 16.6667V20H15C14.5278 20 14.1316 20.16 13.8116 20.48C13.4916 20.8 13.3322 21.1956 13.3333 21.6667C13.3333 22.1389 13.4933 22.535 13.8133 22.855C14.1333 23.175 14.5289 23.3345 15 23.3333H18.3333V26.6667C18.3333 27.1389 18.4933 27.535 18.8133 27.855C19.1333 28.175 19.5289 28.3345 20 28.3333ZM8.49998 31.6667H31.5L28.1666 21.6667L31.5 11.6667H8.49998L11.8333 21.6667L8.49998 31.6667Z" fill="white"/>
</g>
<defs>
<filter id="filter0_d_746_45" x="-4" y="0" width="48" height="48" filterUnits="userSpaceOnUse" color-interpolation-filters="sRGB">
<feFlood flood-opacity="0" result="BackgroundImageFix"/>
<feColorMatrix in="SourceAlpha" type="matrix" values="0 0 0 0 0 0 0 0 0 0 0 0 0 0 0 0 0 0 127 0" result="hardAlpha"/>
<feOffset dy="4"/>
<feGaussianBlur stdDeviation="2"/>
<feComposite in2="hardAlpha" operator="out"/>
<feColorMatrix type="matrix" values="0 0 0 0 0 0 0 0 0 0 0 0 0 0 0 0 0 0 0.25 0"/>
<feBlend mode="normal" in2="BackgroundImageFix" result="effect1_dropShadow_746_45"/>
<feBlend mode="normal" in="SourceGraphic" in2="effect1_dropShadow_746_45" result="shape"/>
</filter>
</defs>
</svg>
