<svg width="60" height="60" viewBox="0 0 60 60" fill="none" xmlns="http://www.w3.org/2000/svg">
<path d="M53.2725 33.3395V21.601C53.2725 19.9351 54.6356 18.5804 56.3109 18.5804C57.1119 18.5807 57.8799 18.899 58.4462 19.4655C59.0125 20.0319 59.3306 20.8001 59.3306 21.601V37.6745C59.33 39.8916 58.5378 42.0356 57.0965 43.7204L47.0737 54.3648C46.079 55.3014 45.8353 56.1301 45.8353 57.3864V59.3242H34.9256L34.9134 54.7135C34.9134 52.9576 34.77 50.611 36.9675 48.3085L49.6856 35.5379C50.129 35.0952 50.7271 34.8422 51.3536 34.8326C51.9801 34.823 52.5858 35.0574 53.0425 35.4862C53.4993 35.9151 53.7714 36.5049 53.8012 37.1307C53.8309 37.7566 53.6161 38.3695 53.2022 38.8398L47.0681 45.4107C46.6706 45.8767 45.9975 46.7551 45.6637 47.8314C45.4837 48.3901 45.4322 48.9348 45.4219 49.5601H47.3962C47.4037 49.1148 47.4375 48.7567 47.5434 48.4248C47.7365 47.8042 48.1209 47.2454 48.4106 46.8873L54.6375 40.0529C55.4203 39.2635 55.8497 38.2417 55.8497 37.1673C55.8497 35.5539 54.8794 34.0698 53.2744 33.3385L53.2725 33.3395ZM7.31154 33.3395V21.601C7.31154 19.9351 5.94842 18.5804 4.27311 18.5804C3.47215 18.5807 2.70408 18.899 2.13781 19.4655C1.57153 20.0319 1.25342 20.8001 1.25342 21.601V37.6745C1.25342 39.8973 2.05311 42.0442 3.48842 43.7204L13.5122 54.3648C14.5059 55.3014 14.7506 56.1301 14.7506 57.3864V59.3242H25.6603L25.6725 54.7135C25.6725 52.9576 25.8159 50.611 23.6184 48.3085L10.9003 35.5379C10.4569 35.0952 9.85877 34.8422 9.23228 34.8326C8.60579 34.823 8.00012 35.0574 7.54335 35.4862C7.08658 35.9151 6.81453 36.5049 6.78475 37.1307C6.75496 37.7566 6.96976 38.3695 7.38373 38.8398L13.5187 45.4107C13.9162 45.8767 14.5894 46.7551 14.9231 47.8314C15.104 48.3901 15.1547 48.9348 15.165 49.5601H13.1906C13.1831 49.1148 13.1503 48.7567 13.0425 48.4248C12.8503 47.8042 12.465 47.2454 12.1753 46.8873L5.94842 40.0539C5.16561 39.2645 4.73623 38.2417 4.73623 37.1682C4.73623 35.5539 5.70654 34.0707 7.31154 33.3395ZM31.44 5.74042C32.127 5.74042 32.7858 5.46751 33.2716 4.98173C33.7574 4.49595 34.0303 3.8371 34.0303 3.1501C34.0303 2.46311 33.7574 1.80425 33.2716 1.31847C32.7858 0.832697 32.127 0.55979 31.44 0.55979C30.753 0.55979 30.0941 0.832697 29.6084 1.31847C29.1226 1.80425 28.8497 2.46311 28.8497 3.1501C28.8497 3.8371 29.1226 4.49595 29.6084 4.98173C30.0941 5.46751 30.753 5.74042 31.44 5.74042ZM17.3897 5.75448C17.0459 5.75596 16.7053 5.68967 16.3872 5.55942C16.0691 5.42916 15.7798 5.23748 15.5358 4.99535C15.2919 4.75321 15.098 4.46536 14.9654 4.14826C14.8327 3.83116 14.7639 3.49102 14.7628 3.14729C14.764 2.80364 14.833 2.4636 14.9657 2.14661C15.0984 1.82962 15.2922 1.54188 15.5362 1.29984C15.7801 1.0578 16.0694 0.866209 16.3874 0.73601C16.7055 0.605812 17.046 0.53956 17.3897 0.54104C18.8409 0.54104 20.0203 1.70729 20.0203 3.14729C20.0203 4.5901 18.8409 5.75448 17.3897 5.75448ZM44.3072 15.752C44.5458 15.7519 44.782 15.7047 45.0024 15.6133C45.2228 15.5219 45.423 15.388 45.5916 15.2192C45.7602 15.0504 45.894 14.85 45.9852 14.6295C46.0764 14.409 46.1232 14.1728 46.1231 13.9342C46.123 13.6956 46.0759 13.4593 45.9844 13.2389C45.893 13.0186 45.7591 12.8183 45.5903 12.6497C45.4215 12.4811 45.2211 12.3474 45.0007 12.2562C44.7802 12.165 44.5439 12.1181 44.3053 12.1182C43.8234 12.1185 43.3614 12.3101 43.0208 12.651C42.6803 12.9919 42.4891 13.4542 42.4894 13.936C42.4896 14.4179 42.6813 14.8799 43.0222 15.2205C43.3631 15.561 43.8253 15.7522 44.3072 15.752Z" fill="#00C750"/>
<path d="M46.9378 16.6481H42.0375C42.015 16.6481 40.3978 16.501 40.3978 16.501L38.3456 9.34783C37.5197 6.46783 35.1047 6.55596 35.1047 6.55596H28.4616C28.4616 6.55596 26.0484 6.46783 25.2225 9.34783L24.2091 12.87L23.1984 9.34783C22.3678 6.46783 19.9594 6.55596 19.9594 6.55596H14.8191C14.8191 6.55596 12.4041 6.46783 11.5781 9.34783L9.50906 16.5563C9.31219 17.2313 9.68156 17.7431 10.2722 17.9138C10.8609 18.0816 11.4637 17.7844 11.6147 17.2472L13.6303 10.2206L14.6119 10.2188L11.67 22.3847H14.2697V31.0266C14.2697 31.7381 14.8434 32.3175 15.5569 32.3175C16.2684 32.3175 16.8506 31.7381 16.8506 31.0266V22.3847H17.9409V31.0266C17.9409 31.7381 18.5156 32.3175 19.2272 32.3175C19.5701 32.318 19.8993 32.1823 20.1422 31.9402C20.3852 31.6982 20.5221 31.3695 20.5228 31.0266V22.3847H23.0775L20.1666 10.2188L21.1444 10.2206L23.1375 17.1731C23.1703 17.2922 23.2237 17.401 23.2931 17.4947C23.4881 17.79 23.8284 17.9531 24.2072 17.941C24.5859 17.9531 24.9244 17.791 25.1194 17.5003C25.2007 17.394 25.2585 17.2716 25.2891 17.1413L27.2719 10.2197L28.1756 10.2178V30.7753C28.1756 31.6153 28.8628 32.2941 29.7009 32.2941C30.54 32.2941 31.2197 31.6153 31.2197 30.7753V19.0791H32.3428V30.7753C32.3428 31.6153 33.0234 32.2941 33.8597 32.2941C34.7006 32.2941 35.3897 31.6153 35.3897 30.7753V10.2178L36.3722 10.2197L38.3016 17.2463C38.4066 17.5922 38.6953 17.821 39.0412 17.9091C39.0562 17.9128 39.0637 17.9194 39.0759 17.9231C39.3834 17.9925 40.8009 18.3947 41.8416 18.6919V31.4419C41.8531 31.7176 41.9708 31.9782 42.1699 32.1692C42.3691 32.3602 42.6344 32.4668 42.9103 32.4668C43.1863 32.4668 43.4515 32.3602 43.6507 32.1692C43.8499 31.9782 43.9675 31.7176 43.9791 31.4419V25.0725H44.8153V31.4419C44.8153 32.0306 45.2925 32.5078 45.8812 32.5078C46.47 32.5078 46.9537 32.0306 46.9537 31.4419V19.5319H47.7741V23.5669C47.7741 24.0103 48.1331 24.3666 48.5691 24.3666C48.6733 24.3661 48.7764 24.345 48.8724 24.3044C48.9684 24.2639 49.0554 24.2048 49.1285 24.1304C49.2015 24.0561 49.2591 23.968 49.2979 23.8713C49.3368 23.7746 49.356 23.6711 49.3547 23.5669V18.9769C49.3566 17.6916 48.225 16.6481 46.9397 16.6481H46.9378Z" fill="#00C750"/>
</svg>
