<svg width="40" height="40" viewBox="0 0 40 40" fill="none" xmlns="http://www.w3.org/2000/svg">
<path d="M13.9417 16.6667L18.6667 13.3333H24.4867L22.6667 8.33333H18.3333V5H25L26.82 10H33.3333V15H28.64L31.0667 21.67C32.9079 21.7285 34.6633 22.4627 35.9979 23.7325C37.3326 25.0023 38.1533 26.7189 38.3034 28.5549C38.4535 30.391 37.9227 32.2181 36.8121 33.6879C35.7014 35.1576 34.0887 36.1672 32.2814 36.5241C30.4741 36.881 28.5987 36.5603 27.0127 35.6231C25.4267 34.6858 24.2412 33.1977 23.6821 31.4424C23.123 29.687 23.2295 27.7874 23.9813 26.1055C24.7331 24.4237 26.0775 23.0774 27.7583 22.3233L25.6983 16.6667H24.12L21.4833 26.45L16.6083 28.2317C16.7843 29.6354 16.5596 31.0603 15.9603 32.3418C15.3609 33.6233 14.4114 34.7091 13.2212 35.4739C12.0311 36.2388 10.6489 36.6514 9.23419 36.6641C7.81953 36.6769 6.43011 36.2893 5.22635 35.546C4.0226 34.8028 3.0536 33.7342 2.43125 32.4638C1.80891 31.1933 1.55858 29.7727 1.70919 28.366C1.8598 26.9593 2.40519 25.6239 3.2824 24.514C4.15961 23.4041 5.33285 22.5649 6.66667 22.0933V20H3.33334V16.6667H13.9417ZM9.16667 33.3333C10.2717 33.3333 11.3315 32.8943 12.1129 32.1129C12.8944 31.3315 13.3333 30.2717 13.3333 29.1667C13.3333 28.0616 12.8944 27.0018 12.1129 26.2204C11.3315 25.439 10.2717 25 9.16667 25C8.0616 25 7.0018 25.439 6.22039 26.2204C5.43899 27.0018 5.00001 28.0616 5.00001 29.1667C5.00001 30.2717 5.43899 31.3315 6.22039 32.1129C7.0018 32.8943 8.0616 33.3333 9.16667 33.3333ZM30.8333 33.3333C31.9384 33.3333 32.9982 32.8943 33.7796 32.1129C34.561 31.3315 35 30.2717 35 29.1667C35 28.0616 34.561 27.0018 33.7796 26.2204C32.9982 25.439 31.9384 25 30.8333 25C29.7283 25 28.6685 25.439 27.8871 26.2204C27.1057 27.0018 26.6667 28.0616 26.6667 29.1667C26.6667 30.2717 27.1057 31.3315 27.8871 32.1129C28.6685 32.8943 29.7283 33.3333 30.8333 33.3333Z" fill="white"/>
</svg>
