<svg width="40" height="40" viewBox="0 0 40 40" fill="none" xmlns="http://www.w3.org/2000/svg">
<path d="M38.675 19.575C37.2048 15.7721 34.6525 12.4833 31.3335 10.1151C28.0145 7.74694 24.0744 6.40322 20 6.25C15.9257 6.40322 11.9855 7.74694 8.66652 10.1151C5.34754 12.4833 2.79522 15.7721 1.32502 19.575C1.22573 19.8496 1.22573 20.1504 1.32502 20.425C2.79522 24.2279 5.34754 27.5167 8.66652 29.8849C11.9855 32.2531 15.9257 33.5968 20 33.75C24.0744 33.5968 28.0145 32.2531 31.3335 29.8849C34.6525 27.5167 37.2048 24.2279 38.675 20.425C38.7743 20.1504 38.7743 19.8496 38.675 19.575ZM20 31.25C13.375 31.25 6.37502 26.3375 3.83752 20C6.37502 13.6625 13.375 8.75 20 8.75C26.625 8.75 33.625 13.6625 36.1625 20C33.625 26.3375 26.625 31.25 20 31.25Z" fill="white"/>
<path d="M20 12.5C18.5166 12.5 17.0666 12.9399 15.8332 13.764C14.5999 14.5881 13.6386 15.7594 13.0709 17.1299C12.5032 18.5003 12.3547 20.0083 12.6441 21.4632C12.9335 22.918 13.6478 24.2544 14.6967 25.3033C15.7456 26.3522 17.082 27.0665 18.5368 27.3559C19.9917 27.6453 21.4997 27.4968 22.8701 26.9291C24.2406 26.3614 25.4119 25.4001 26.236 24.1668C27.0601 22.9334 27.5 21.4834 27.5 20C27.5 18.0109 26.7098 16.1032 25.3033 14.6967C23.8968 13.2902 21.9891 12.5 20 12.5ZM20 25C19.0111 25 18.0444 24.7068 17.2222 24.1573C16.3999 23.6079 15.759 22.827 15.3806 21.9134C15.0022 20.9998 14.9032 19.9945 15.0961 19.0245C15.289 18.0546 15.7652 17.1637 16.4645 16.4645C17.1637 15.7652 18.0546 15.289 19.0246 15.0961C19.9945 14.9031 20.9998 15.0022 21.9134 15.3806C22.827 15.759 23.6079 16.3999 24.1574 17.2221C24.7068 18.0444 25 19.0111 25 20C25 21.3261 24.4732 22.5979 23.5355 23.5355C22.5979 24.4732 21.3261 25 20 25Z" fill="white"/>
</svg>
