<svg width="40" height="40" viewBox="0 0 40 40" fill="none" xmlns="http://www.w3.org/2000/svg">
<path d="M16.25 11.25H12.5C11.837 11.25 11.2011 11.5134 10.7322 11.9822C10.2634 12.4511 10 13.087 10 13.75V25.2625C12.8938 26.0925 15 28.79 15 31.9263C15 32.7313 14.47 33.4338 13.725 33.6675C13.7219 33.695 13.7186 33.7225 13.715 33.75H24.59C23.6853 33.0189 23.0295 32.0253 22.7129 30.9061C22.3963 29.7868 22.4345 28.5969 22.8221 27.5003C23.2098 26.4036 23.9279 25.4541 24.8776 24.7824C25.8273 24.1108 26.9618 23.7501 28.125 23.75H33.2325C33.8513 23.75 34.445 23.8513 35 24.0388V23.75C35 22.7554 34.6049 21.8016 33.9017 21.0983C33.1984 20.3951 32.2446 20 31.25 20H18.125C17.9592 20 17.8003 20.0658 17.6831 20.1831C17.5658 20.3003 17.5 20.4592 17.5 20.625V22.5C17.5 23.163 17.7634 23.7989 18.2322 24.2678C18.7011 24.7366 19.337 25 20 25H20.625C21.1223 25 21.5992 25.1975 21.9508 25.5492C22.3025 25.9008 22.5 26.3777 22.5 26.875C22.5 27.3723 22.3025 27.8492 21.9508 28.2008C21.5992 28.5525 21.1223 28.75 20.625 28.75H15.8337C15.6126 28.75 15.4006 28.6622 15.2442 28.5058C15.0878 28.3494 15 28.1374 15 27.9163V13.75H16.25C16.5815 13.75 16.8995 13.6183 17.1339 13.3839C17.3683 13.1495 17.5 12.8315 17.5 12.5C17.5 12.1685 17.3683 11.8505 17.1339 11.6161C16.8995 11.3817 16.5815 11.25 16.25 11.25Z" fill="white"/>
<path d="M19.5838 16.25C18.4338 16.25 17.5 17.1825 17.5 18.3337C17.5 18.5637 17.6875 18.75 17.9163 18.75H28.3338C28.5638 18.75 28.75 18.5625 28.75 18.3337C28.75 17.1837 27.8175 16.25 26.6663 16.25H19.5838ZM12.5 33.125C12.4989 33.7253 12.3743 34.3189 12.134 34.8689C11.8936 35.419 11.5427 35.9137 11.1029 36.3222C10.6632 36.7308 10.144 37.0445 9.57783 37.2439C9.01163 37.4432 8.41047 37.5239 7.81174 37.4809C7.21302 37.4379 6.62955 37.2722 6.09763 36.994C5.56571 36.7159 5.09672 36.3312 4.71983 35.864C4.34295 35.3968 4.06624 34.8571 3.90692 34.2783C3.7476 33.6996 3.70908 33.0943 3.79375 32.5H3.06875C2.91735 32.499 2.7725 32.4381 2.66591 32.3306C2.55932 32.223 2.49967 32.0777 2.5 31.9263C2.5 28.82 5.01875 26.25 8.125 26.25C11.2313 26.25 13.75 28.82 13.75 31.9263C13.7503 32.0774 13.6909 32.2226 13.5845 32.3301C13.4782 32.4376 13.3337 32.4987 13.1825 32.5H12.4563C12.485 32.7038 12.5 32.9125 12.5 33.125ZM6.35625 32.5C6.25679 32.7827 6.22656 33.0852 6.26809 33.382C6.30961 33.6788 6.42169 33.9614 6.59492 34.206C6.76816 34.4505 6.9975 34.65 7.26372 34.7877C7.52994 34.9254 7.82529 34.9972 8.125 34.9972C8.42471 34.9972 8.72006 34.9254 8.98628 34.7877C9.25251 34.65 9.48185 34.4505 9.65508 34.206C9.82831 33.9614 9.94039 33.6788 9.98192 33.382C10.0234 33.0852 9.99321 32.7827 9.89375 32.5H6.35625ZM36.2063 33.75C36.0549 34.7944 35.5313 35.7489 34.7319 36.4378C33.9324 37.1267 32.911 37.5034 31.8557 37.4987C30.8004 37.494 29.7823 37.1081 28.989 36.4121C28.1958 35.7162 27.6807 34.757 27.5388 33.7112C26.4382 33.5638 25.4349 33.0034 24.7322 32.1436C24.0295 31.2839 23.68 30.1891 23.7546 29.0812C23.8292 27.9734 24.3222 26.9353 25.1337 26.1774C25.9453 25.4196 27.0146 24.9987 28.125 25H33.2325C34.3643 25 35.4498 25.4496 36.2501 26.2499C37.0504 27.0502 37.5 28.1357 37.5 29.2675V32.5C37.5 32.8315 37.3683 33.1495 37.1339 33.3839C36.8995 33.6183 36.5815 33.75 36.25 33.75H36.2063ZM30.1063 33.75C30.2351 34.1162 30.4744 34.4335 30.7913 34.6579C31.1081 34.8823 31.4868 35.0028 31.875 35.0028C32.2632 35.0028 32.6419 34.8823 32.9587 34.6579C33.2756 34.4335 33.5149 34.1162 33.6438 33.75H30.1063Z" fill="white"/>
</svg>
