<svg width="40" height="40" viewBox="0 0 40 40" fill="none" xmlns="http://www.w3.org/2000/svg">
<path d="M23.34 17.074C23.1816 17.0729 23.0291 17.1346 22.916 17.2455C22.8028 17.3564 22.7381 17.5076 22.736 17.666V22.09C22.7381 22.2488 22.8031 22.4003 22.9167 22.5112C23.0303 22.6222 23.1832 22.6836 23.342 22.682H36.668C36.8268 22.6836 36.9797 22.6222 37.0933 22.5112C37.2069 22.4003 37.2719 22.2488 37.274 22.09V17.666C37.2719 17.5072 37.2069 17.3557 37.0933 17.2448C36.9797 17.1338 36.8268 17.0724 36.668 17.074H23.34ZM31.512 3.002C33.356 3.09 34.682 3.454 35.522 4.226C36.352 4.99 36.778 6.096 36.862 7.56V11.754C36.8578 12.1112 36.712 12.4521 36.4566 12.7018C36.2012 12.9516 35.8572 13.0897 35.5 13.086C35.323 13.0881 35.1473 13.0553 34.9829 12.9895C34.8186 12.9237 34.6688 12.8262 34.5421 12.7025C34.4154 12.5788 34.3144 12.4314 34.2447 12.2687C34.175 12.1059 34.1381 11.931 34.136 11.754L34.138 7.636C34.094 6.876 33.912 6.404 33.652 6.164C33.4 5.932 32.632 5.724 31.446 5.664H5.294C4.22 5.704 3.522 5.908 3.184 6.198C2.924 6.42 2.728 7.032 2.726 8.09L2.72 31.63C2.82 32.658 3.046 33.344 3.336 33.686C3.556 33.946 4.238 34.206 5.242 34.334H31.474C32.702 34.358 33.426 34.174 33.67 33.928C33.94 33.654 34.136 32.934 34.136 31.756V27.666C34.136 26.932 34.746 26.334 35.5 26.334C36.252 26.334 36.862 26.932 36.862 27.666V31.756C36.862 33.556 36.494 34.902 35.632 35.776C34.744 36.676 33.332 37.036 31.446 36.996L5.08 36.99C3.286 36.782 2 36.29 1.234 35.384C0.54 34.564 0.154 33.394 0 31.758V8.088C0.004 6.336 0.424 5.018 1.388 4.194C2.272 3.434 3.548 3.064 5.242 3H31.512V3.002ZM36.668 14.41C38.508 14.41 40 15.868 40 17.666V22.09C40 23.888 38.508 25.346 36.668 25.346H23.342C21.502 25.346 20.01 23.886 20.01 22.09V17.666C20.01 15.868 21.502 14.41 23.342 14.41H36.668ZM26.674 18.29C25.754 18.29 25.008 19.01 25.008 19.896C25.008 20.784 25.754 21.502 26.674 21.502C27.594 21.502 28.34 20.782 28.34 19.896C28.34 19.008 27.594 18.288 26.674 18.288V18.29Z" fill="white"/>
</svg>
