<svg width="40" height="40" viewBox="0 0 40 40" fill="none" xmlns="http://www.w3.org/2000/svg">
<path d="M34.6187 15.7579L22.1266 3.9657L22.1016 3.94226C21.5275 3.41687 20.7774 3.12549 19.9992 3.12549C19.221 3.12549 18.471 3.41687 17.8969 3.94226L17.8703 3.9657L5.38125 15.7579C5.06453 16.0509 4.81169 16.4061 4.63855 16.8014C4.46541 17.1966 4.37569 17.6233 4.375 18.0548V32.5001C4.375 33.3289 4.70424 34.1237 5.29029 34.7098C5.87634 35.2958 6.6712 35.6251 7.5 35.6251H15C15.8288 35.6251 16.6237 35.2958 17.2097 34.7098C17.7958 34.1237 18.125 33.3289 18.125 32.5001V25.6251H21.875V32.5001C21.875 33.3289 22.2042 34.1237 22.7903 34.7098C23.3763 35.2958 24.1712 35.6251 25 35.6251H32.5C33.3288 35.6251 34.1237 35.2958 34.7097 34.7098C35.2958 34.1237 35.625 33.3289 35.625 32.5001V18.0548C35.6243 17.6233 35.5346 17.1966 35.3614 16.8014C35.1883 16.4061 34.9355 16.0509 34.6187 15.7579ZM31.875 31.8751H25.625V25.0001C25.625 24.5897 25.5442 24.1833 25.3871 23.8042C25.2301 23.425 24.9999 23.0805 24.7097 22.7904C24.4195 22.5002 24.075 22.27 23.6959 22.113C23.3167 21.9559 22.9104 21.8751 22.5 21.8751H17.5C16.6712 21.8751 15.8763 22.2043 15.2903 22.7904C14.7042 23.3764 14.375 24.1713 14.375 25.0001V31.8751H8.125V18.3251L20 7.11414L31.875 18.3251V31.8751Z" fill="white"/>
</svg>
