<svg width="40" height="40" viewBox="0 0 40 40" fill="none" xmlns="http://www.w3.org/2000/svg">
<path d="M10 35L3.33333 28.3333L10 21.6667L12.3333 24L9.66667 26.6667H30.3333L27.6667 24L30 21.6667L36.6667 28.3333L30 35L27.6667 32.6667L30.3333 30H9.66667L12.3333 32.6667L10 35ZM3.33333 18.3333V17.375C3.33333 16.7083 3.51389 16.0972 3.875 15.5417C4.23611 14.9861 4.73611 14.5694 5.375 14.2917C6.09722 13.9861 6.84055 13.75 7.605 13.5833C8.36944 13.4167 9.16778 13.3333 10 13.3333C10.8333 13.3333 11.6322 13.4167 12.3967 13.5833C13.1611 13.75 13.9039 13.9861 14.625 14.2917C15.2639 14.5694 15.7639 14.9861 16.125 15.5417C16.4861 16.0972 16.6667 16.7083 16.6667 17.375V18.3333H3.33333ZM23.3333 18.3333V17.375C23.3333 16.7083 23.5139 16.0972 23.875 15.5417C24.2361 14.9861 24.7361 14.5694 25.375 14.2917C26.0972 13.9861 26.8406 13.75 27.605 13.5833C28.3694 13.4167 29.1678 13.3333 30 13.3333C30.8333 13.3333 31.6322 13.4167 32.3967 13.5833C33.1611 13.75 33.9039 13.9861 34.625 14.2917C35.2639 14.5694 35.7639 14.9861 36.125 15.5417C36.4861 16.0972 36.6667 16.7083 36.6667 17.375V18.3333H23.3333ZM10 11.6667C9.08333 11.6667 8.29833 11.34 7.645 10.6867C6.99167 10.0333 6.66555 9.24889 6.66667 8.33334C6.66667 7.41667 6.99333 6.63167 7.64666 5.97834C8.3 5.325 9.08444 4.99889 10 5C10.9167 5 11.7017 5.32667 12.355 5.98C13.0083 6.63334 13.3344 7.41778 13.3333 8.33334C13.3333 9.25 13.0067 10.035 12.3533 10.6883C11.7 11.3417 10.9156 11.6678 10 11.6667ZM30 11.6667C29.0833 11.6667 28.2983 11.34 27.645 10.6867C26.9917 10.0333 26.6656 9.24889 26.6667 8.33334C26.6667 7.41667 26.9933 6.63167 27.6467 5.97834C28.3 5.325 29.0844 4.99889 30 5C30.9167 5 31.7017 5.32667 32.355 5.98C33.0083 6.63334 33.3344 7.41778 33.3333 8.33334C33.3333 9.25 33.0067 10.035 32.3533 10.6883C31.7 11.3417 30.9156 11.6678 30 11.6667Z" fill="white"/>
</svg>
