<svg width="40" height="40" viewBox="0 0 40 40" fill="none" xmlns="http://www.w3.org/2000/svg">
<g clip-path="url(#clip0_738_34)">
<path d="M26.25 4.06903e-05C26.5885 4.06903e-05 26.8815 0.123739 27.1289 0.371134L39.6289 12.8711C39.8763 13.1185 40 13.4115 40 13.75C40 14.0886 39.8763 14.3816 39.6289 14.6289L34.8828 19.375C35.2083 19.7006 35.5273 20.0131 35.8398 20.3125C36.1523 20.612 36.4258 20.918 36.6602 21.2305C36.8945 21.543 37.0898 21.8946 37.2461 22.2852C37.4023 22.6758 37.4805 23.112 37.4805 23.5938C37.4805 24.1146 37.3828 24.6094 37.1875 25.0782C36.9922 25.5469 36.7253 25.9571 36.3867 26.3086C36.0482 26.6602 35.651 26.9401 35.1953 27.1485C34.7396 27.3568 34.2513 27.4675 33.7305 27.4805C33.7044 28.0144 33.5938 28.5026 33.3984 28.9454C33.2031 29.3881 32.9427 29.7787 32.6172 30.1172C32.2917 30.4558 31.901 30.7227 31.4453 30.918C30.9896 31.1133 30.5013 31.2175 29.9805 31.2305C29.9674 31.7513 29.8568 32.2396 29.6484 32.6954C29.4401 33.1511 29.1602 33.5482 28.8086 33.8868C28.457 34.2253 28.0469 34.4987 27.5781 34.7071C27.1094 34.9154 26.6146 35.0131 26.0938 35C25.6771 35 25.2539 34.9284 24.8242 34.7852C24.681 35.1888 24.4922 35.5534 24.2578 35.8789C24.0234 36.2045 23.737 36.4909 23.3984 36.7383C23.0599 36.9857 22.7018 37.1745 22.3242 37.3047C21.9466 37.4349 21.5365 37.5 21.0938 37.5C20.7552 37.5 20.4557 37.474 20.1953 37.4219C19.9349 37.3698 19.694 37.2787 19.4727 37.1485C19.2513 37.0183 19.0299 36.875 18.8086 36.7188C18.5872 36.5625 18.3594 36.3737 18.125 36.1524C17.6693 36.5691 17.2266 36.8946 16.7969 37.1289C16.3672 37.3633 15.8203 37.487 15.1562 37.5C14.6354 37.5 14.1406 37.4024 13.6719 37.2071C13.2031 37.0118 12.793 36.7448 12.4414 36.4063C12.0898 36.0677 11.8099 35.6706 11.6016 35.2149C11.3932 34.7592 11.2826 34.2644 11.2695 33.7305C10.7617 33.7175 10.2799 33.6133 9.82422 33.418C9.36849 33.2227 8.97135 32.9558 8.63281 32.6172C8.29427 32.2787 8.02734 31.8816 7.83203 31.4258C7.63672 30.9701 7.53255 30.4883 7.51953 29.9805C6.9987 29.9675 6.51693 29.8633 6.07422 29.668C5.63151 29.4727 5.24089 29.2058 4.90234 28.8672C4.5638 28.5287 4.29688 28.1316 4.10156 27.6758C3.90625 27.2201 3.79557 26.7383 3.76953 26.2305C3.23568 26.2175 2.74089 26.1068 2.28516 25.8985C1.82943 25.6901 1.43229 25.4102 1.09375 25.0586C0.755208 24.7071 0.488281 24.3034 0.292969 23.8477C0.0976562 23.392 0 22.8972 0 22.3633C0 21.8295 0.0976562 21.3282 0.292969 20.8594C0.488281 20.3907 0.77474 19.9675 1.15234 19.5899L3.22266 17.5L0.371094 14.6289C0.123698 14.3816 0 14.0886 0 13.75C0 13.4115 0.123698 13.1185 0.371094 12.8711L12.8711 0.371134C13.1185 0.123739 13.4115 4.06903e-05 13.75 4.06903e-05C14.0885 4.06903e-05 14.3815 0.123739 14.6289 0.371134L17.207 2.94926C17.3763 2.89718 17.7018 2.7865 18.1836 2.61723C18.6654 2.44796 19.2318 2.25916 19.8828 2.05082C20.5339 1.84249 21.2044 1.61462 21.8945 1.36723C22.5846 1.11983 23.2487 0.898478 23.8867 0.703166C24.5247 0.507853 25.0521 0.338582 25.4688 0.195353C25.8854 0.052124 26.1458 -0.0129801 26.25 4.06903e-05ZM6.09375 18.75C5.71615 18.75 5.39062 18.8868 5.11719 19.1602L2.91016 21.3477C2.63672 21.6211 2.5 21.9532 2.5 22.3438C2.5 22.7344 2.63021 23.0599 2.89062 23.3204C3.15104 23.5808 3.48307 23.7175 3.88672 23.7305C4.29036 23.7305 4.6224 23.6003 4.88281 23.3399L7.08984 21.1524C7.36328 20.8789 7.5 20.5469 7.5 20.1563C7.5 19.7657 7.36328 19.4336 7.08984 19.1602C6.81641 18.8868 6.48438 18.75 6.09375 18.75ZM9.84375 22.5C9.66146 22.5 9.48568 22.5326 9.31641 22.5977C9.14714 22.6628 8.99089 22.767 8.84766 22.9102L6.66016 25.1172C6.38672 25.3907 6.25 25.7227 6.25 26.1133C6.25 26.4909 6.38672 26.8099 6.66016 27.0704C6.93359 27.3308 7.26562 27.4675 7.65625 27.4805C7.83854 27.4805 8.01432 27.448 8.18359 27.3829C8.35286 27.3177 8.50911 27.2201 8.65234 27.0899L10.8398 24.8829C11.1133 24.6094 11.25 24.2839 11.25 23.9063C11.25 23.5157 11.1133 23.1836 10.8398 22.9102C10.5664 22.6368 10.2344 22.5 9.84375 22.5ZM13.5938 26.25C13.2161 26.25 12.8906 26.3868 12.6172 26.6602L10.4102 28.8477C10.1367 29.1211 10 29.4532 10 29.8438C10 30.2344 10.1302 30.5599 10.3906 30.8204C10.651 31.0808 10.9831 31.2175 11.3867 31.2305C11.7904 31.2305 12.1224 31.1003 12.3828 30.8399L14.5898 28.6524C14.8633 28.3789 15 28.0469 15 27.6563C15 27.2657 14.8633 26.9336 14.5898 26.6602C14.3164 26.3868 13.9844 26.25 13.5938 26.25ZM13.75 33.6133C13.75 33.9909 13.8867 34.3099 14.1602 34.5704C14.4336 34.8308 14.7656 34.9675 15.1562 34.9805C15.3385 34.9805 15.5143 34.948 15.6836 34.8829C15.8529 34.8177 16.0091 34.7201 16.1523 34.5899L18.3398 32.3829C18.6133 32.1094 18.75 31.7839 18.75 31.4063C18.75 31.0157 18.6133 30.6836 18.3398 30.4102C18.0664 30.1368 17.7344 30 17.3438 30C17.1615 30 16.9857 30.0326 16.8164 30.0977C16.6471 30.1628 16.4909 30.267 16.3477 30.4102L14.1602 32.6172C13.8867 32.8907 13.75 33.2227 13.75 33.6133ZM33.5938 25C33.9714 25 34.2969 24.8633 34.5703 24.5899C34.8438 24.3164 34.987 23.9909 35 23.6133C35 23.2227 34.8633 22.8907 34.5898 22.6172L22.2461 10.2539C22.207 10.2149 22.1419 10.1823 22.0508 10.1563C21.9596 10.1302 21.8685 10.1042 21.7773 10.0782C21.6862 10.0521 21.5885 10.0326 21.4844 10.0196C21.3802 10.0066 21.3021 10 21.25 10C20.9115 10 20.5924 10.0651 20.293 10.1954C19.9935 10.3256 19.7266 10.5013 19.4922 10.7227C19.2578 10.9441 19.0755 11.211 18.9453 11.5235C18.8151 11.836 18.75 12.1615 18.75 12.5C18.75 13.1901 18.6198 13.8347 18.3594 14.4336C18.099 15.0326 17.7409 15.5664 17.2852 16.0352C16.8294 16.5039 16.3021 16.862 15.7031 17.1094C15.1042 17.3568 14.4531 17.487 13.75 17.5C13.2292 17.5 12.7409 17.4024 12.2852 17.2071C11.8294 17.0118 11.4323 16.7448 11.0938 16.4063C10.7552 16.0677 10.4883 15.6706 10.293 15.2149C10.0977 14.7592 10 14.2709 10 13.75C10 13.4375 10.0326 13.0925 10.0977 12.7149C10.1628 12.3373 10.2669 11.9987 10.4102 11.6993L14.0625 4.37504C14.1797 4.16671 14.3555 3.99744 14.5898 3.86723L13.75 3.02738L3.00781 13.75L5.64453 16.3672C6.23047 16.3021 6.78385 16.3412 7.30469 16.4844C7.82552 16.6276 8.28125 16.8685 8.67188 17.2071C9.0625 17.5456 9.375 17.9558 9.60938 18.4375C9.84375 18.9193 9.96745 19.4597 9.98047 20.0586C10.5013 20.0847 10.9896 20.1888 11.4453 20.3711C11.901 20.5534 12.2917 20.8138 12.6172 21.1524C12.9427 21.4909 13.2096 21.8816 13.418 22.3243C13.6263 22.767 13.7305 23.2618 13.7305 23.8086C14.2513 23.8347 14.7396 23.9388 15.1953 24.1211C15.651 24.3034 16.0417 24.5638 16.3672 24.9024C16.6927 25.2409 16.9596 25.6316 17.168 26.0743C17.3763 26.517 17.4805 27.0118 17.4805 27.5586C18.0143 27.5847 18.5091 27.6954 18.9648 27.8907C19.4206 28.086 19.8177 28.3529 20.1562 28.6914C20.4948 29.03 20.7617 29.4336 20.957 29.9024C21.1523 30.3711 21.25 30.8724 21.25 31.4063C21.25 31.9922 21.1328 32.5391 20.8984 33.0469C20.6641 33.5547 20.3255 33.9974 19.8828 34.375C20.0781 34.5573 20.2539 34.7071 20.4102 34.8243C20.5664 34.9414 20.7943 35 21.0938 35C21.4714 35 21.7969 34.8633 22.0703 34.5899C22.3438 34.3164 22.487 33.9909 22.5 33.6133C22.5 33.2227 22.3633 32.8907 22.0898 32.6172L23.8477 30.8399L25.1172 32.0899C25.4167 32.3633 25.7422 32.5 26.0938 32.5C26.4714 32.5 26.7969 32.3633 27.0703 32.0899C27.3438 31.8164 27.487 31.4909 27.5 31.1133C27.5 30.7227 27.3633 30.3907 27.0898 30.1172L24.8828 27.9102L26.6602 26.1524L28.8477 28.3399C29.1211 28.6133 29.4531 28.75 29.8438 28.75C30.2344 28.75 30.5664 28.6133 30.8398 28.3399C31.1133 28.0664 31.25 27.7344 31.25 27.3438C31.25 26.9532 31.1133 26.6211 30.8398 26.3477L28.6328 24.1602L30.4102 22.3829L32.6172 24.5899C32.8906 24.8633 33.2161 25 33.5938 25ZM36.9727 13.75L25.918 2.67582L16.0742 5.95707L12.6758 12.7539C12.6107 12.8711 12.5651 13.0339 12.5391 13.2422C12.513 13.4506 12.5 13.6198 12.5 13.75C12.5 14.0886 12.6237 14.3816 12.8711 14.6289C13.1185 14.8763 13.4115 15 13.75 15C14.1016 15 14.4271 14.9349 14.7266 14.8047C15.026 14.6745 15.2865 14.4987 15.5078 14.2774C15.7292 14.056 15.9115 13.7891 16.0547 13.4766C16.1979 13.1641 16.263 12.8386 16.25 12.5C16.25 11.8099 16.3802 11.1654 16.6406 10.5664C16.901 9.96749 17.2591 9.43363 17.7148 8.96488C18.1706 8.49613 18.6979 8.13806 19.2969 7.89067C19.8958 7.64327 20.5469 7.51306 21.25 7.50004C21.4583 7.50004 21.6797 7.51957 21.9141 7.55863C22.1484 7.5977 22.3958 7.64978 22.6562 7.71488C22.9167 7.77999 23.1445 7.87113 23.3398 7.98832C23.5352 8.10551 23.724 8.24223 23.9062 8.39848L33.125 17.6172L36.9727 13.75Z" fill="white"/>
</g>
<defs>
<clipPath id="clip0_738_34">
<rect width="40" height="40" fill="white"/>
</clipPath>
</defs>
</svg>
