<svg width="40" height="40" viewBox="0 0 40 40" fill="none" xmlns="http://www.w3.org/2000/svg">
<path d="M33.75 9.37503H24.5312L28.8313 5.07503C29.1835 4.72279 29.3814 4.24505 29.3814 3.7469C29.3814 3.24876 29.1835 2.77102 28.8313 2.41878C28.479 2.06654 28.0013 1.86865 27.5031 1.86865C27.005 1.86865 26.5272 2.06654 26.175 2.41878L20 8.59378L13.8266 2.42347C13.4743 2.07123 12.9966 1.87334 12.4984 1.87334C12.0003 1.87334 11.5226 2.07123 11.1703 2.42347C10.8181 2.77571 10.6202 3.25345 10.6202 3.75159C10.6202 4.24974 10.8181 4.72748 11.1703 5.07972L15.4688 9.37503H6.25C5.4212 9.37503 4.62634 9.70427 4.04029 10.2903C3.45424 10.8764 3.125 11.6712 3.125 12.5V31.25C3.125 32.0788 3.45424 32.8737 4.04029 33.4597C4.62634 34.0458 5.4212 34.375 6.25 34.375H33.75C34.5788 34.375 35.3737 34.0458 35.9597 33.4597C36.5458 32.8737 36.875 32.0788 36.875 31.25V12.5C36.875 11.6712 36.5458 10.8764 35.9597 10.2903C35.3737 9.70427 34.5788 9.37503 33.75 9.37503ZM33.125 30.625H6.875V13.125H33.125V30.625Z" fill="white"/>
</svg>
