<svg width="40" height="40" viewBox="0 0 40 40" fill="none" xmlns="http://www.w3.org/2000/svg">
<path d="M32.5 36.25H32.2875C7.72501 34.8375 4.2375 14.1125 3.75 7.7875C3.71072 7.29573 3.76886 6.80103 3.9211 6.33176C4.07333 5.8625 4.31666 5.42788 4.63715 5.05282C4.95764 4.67775 5.34899 4.36961 5.78877 4.14605C6.22855 3.92249 6.70812 3.7879 7.2 3.75H14.0875C14.5882 3.74952 15.0775 3.89939 15.492 4.1802C15.9066 4.46102 16.2272 4.85984 16.4125 5.325L18.3125 10C18.4954 10.4544 18.5408 10.9526 18.4431 11.4326C18.3453 11.9126 18.1086 12.3533 17.7625 12.7L15.1 15.3875C15.5159 17.7509 16.6477 19.9296 18.3424 21.6287C20.037 23.3278 22.2127 24.4654 24.575 24.8875L27.2875 22.2C27.6394 21.8577 28.0842 21.6266 28.5666 21.5354C29.049 21.4443 29.5475 21.4972 30 21.6875L34.7125 23.575C35.1707 23.7661 35.5615 24.0893 35.8354 24.5033C36.1092 24.9174 36.2535 25.4036 36.25 25.9V32.5C36.25 33.4946 35.8549 34.4484 35.1517 35.1517C34.4484 35.8549 33.4946 36.25 32.5 36.25ZM7.5 6.25C7.16848 6.25 6.85054 6.3817 6.61612 6.61612C6.3817 6.85054 6.25 7.16848 6.25 7.5V7.6C6.825 15 10.5125 32.5 32.425 33.75C32.5892 33.7601 32.7538 33.7378 32.9094 33.6842C33.0649 33.6306 33.2084 33.5468 33.3315 33.4376C33.4546 33.3285 33.5549 33.1961 33.6267 33.048C33.6986 32.9 33.7404 32.7393 33.75 32.575V25.9L29.0375 24.0125L25.45 27.575L24.85 27.5C13.975 26.1375 12.5 15.2625 12.5 15.15L12.425 14.55L15.975 10.9625L14.1 6.25H7.5Z" fill="white"/>
</svg>
